<svg width="136" height="273" viewBox="0 0 136 273" fill="none" xmlns="http://www.w3.org/2000/svg">
<g opacity="0.2">
<circle cx="3.5" cy="3.5" r="3.5" fill="#005DE9"/>
<circle cx="3.5" cy="98.5" r="3.5" fill="#005DE9"/>
<circle cx="3.5" cy="193.5" r="3.5" fill="#005DE9"/>
<circle cx="79.5" cy="3.5" r="3.5" fill="#005DE9"/>
<circle cx="79.5" cy="98.5" r="3.5" fill="#005DE9"/>
<circle cx="79.5" cy="193.5" r="3.5" fill="#005DE9"/>
<circle cx="3.5" cy="22.5" r="3.5" fill="#005DE9"/>
<circle cx="3.5" cy="117.5" r="3.5" fill="#005DE9"/>
<circle cx="3.5" cy="212.5" r="3.5" fill="#005DE9"/>
<circle cx="79.5" cy="22.5" r="3.5" fill="#005DE9"/>
<circle cx="79.5" cy="117.5" r="3.5" fill="#005DE9"/>
<circle cx="79.5" cy="212.5" r="3.5" fill="#005DE9"/>
<circle cx="3.5" cy="41.5" r="3.5" fill="#005DE9"/>
<circle cx="3.5" cy="136.5" r="3.5" fill="#005DE9"/>
<circle cx="3.5" cy="231.5" r="3.5" fill="#005DE9"/>
<circle cx="79.5" cy="41.5" r="3.5" fill="#005DE9"/>
<circle cx="79.5" cy="136.5" r="3.5" fill="#005DE9"/>
<circle cx="79.5" cy="231.5" r="3.5" fill="#005DE9"/>
<circle cx="3.5" cy="60.5" r="3.5" fill="#005DE9"/>
<circle cx="3.5" cy="155.5" r="3.5" fill="#005DE9"/>
<circle cx="3.5" cy="250.5" r="3.5" fill="#005DE9"/>
<circle cx="79.5" cy="60.5" r="3.5" fill="#005DE9"/>
<circle cx="79.5" cy="155.5" r="3.5" fill="#005DE9"/>
<circle cx="79.5" cy="250.5" r="3.5" fill="#005DE9"/>
<circle cx="3.5" cy="79.5" r="3.5" fill="#005DE9"/>
<circle cx="3.5" cy="174.5" r="3.5" fill="#005DE9"/>
<circle cx="3.5" cy="269.5" r="3.5" fill="#005DE9"/>
<circle cx="79.5" cy="79.5" r="3.5" fill="#005DE9"/>
<circle cx="79.5" cy="174.5" r="3.5" fill="#005DE9"/>
<circle cx="79.5" cy="269.5" r="3.5" fill="#005DE9"/>
<circle cx="22.5" cy="3.5" r="3.5" fill="#005DE9"/>
<circle cx="22.5" cy="98.5" r="3.5" fill="#005DE9"/>
<circle cx="22.5" cy="193.5" r="3.5" fill="#005DE9"/>
<circle cx="98.5" cy="3.5" r="3.5" fill="#005DE9"/>
<circle cx="98.5" cy="98.5" r="3.5" fill="#005DE9"/>
<circle cx="98.5" cy="193.5" r="3.5" fill="#005DE9"/>
<circle cx="22.5" cy="22.5" r="3.5" fill="#005DE9"/>
<circle cx="22.5" cy="117.5" r="3.5" fill="#005DE9"/>
<circle cx="22.5" cy="212.5" r="3.5" fill="#005DE9"/>
<circle cx="98.5" cy="22.5" r="3.5" fill="#005DE9"/>
<circle cx="98.5" cy="117.5" r="3.5" fill="#005DE9"/>
<circle cx="98.5" cy="212.5" r="3.5" fill="#005DE9"/>
<circle cx="22.5" cy="41.5" r="3.5" fill="#005DE9"/>
<circle cx="22.5" cy="136.5" r="3.5" fill="#005DE9"/>
<circle cx="22.5" cy="231.5" r="3.5" fill="#005DE9"/>
<circle cx="98.5" cy="41.5" r="3.5" fill="#005DE9"/>
<circle cx="98.5" cy="136.5" r="3.5" fill="#005DE9"/>
<circle cx="98.5" cy="231.5" r="3.5" fill="#005DE9"/>
<circle cx="22.5" cy="60.5" r="3.5" fill="#005DE9"/>
<circle cx="22.5" cy="155.5" r="3.5" fill="#005DE9"/>
<circle cx="22.5" cy="250.5" r="3.5" fill="#005DE9"/>
<circle cx="98.5" cy="60.5" r="3.5" fill="#005DE9"/>
<circle cx="98.5" cy="155.5" r="3.5" fill="#005DE9"/>
<circle cx="98.5" cy="250.5" r="3.5" fill="#005DE9"/>
<circle cx="22.5" cy="79.5" r="3.5" fill="#005DE9"/>
<circle cx="22.5" cy="174.5" r="3.5" fill="#005DE9"/>
<circle cx="22.5" cy="269.5" r="3.5" fill="#005DE9"/>
<circle cx="98.5" cy="79.5" r="3.5" fill="#005DE9"/>
<circle cx="98.5" cy="174.5" r="3.5" fill="#005DE9"/>
<circle cx="98.5" cy="269.5" r="3.5" fill="#005DE9"/>
<circle cx="41.5" cy="3.5" r="3.5" fill="#005DE9"/>
<circle cx="41.5" cy="98.5" r="3.5" fill="#005DE9"/>
<circle cx="41.5" cy="193.5" r="3.5" fill="#005DE9"/>
<circle cx="117.5" cy="3.5" r="3.5" fill="#005DE9"/>
<circle cx="117.5" cy="98.5" r="3.5" fill="#005DE9"/>
<circle cx="117.5" cy="193.5" r="3.5" fill="#005DE9"/>
<circle cx="41.5" cy="22.5" r="3.5" fill="#005DE9"/>
<circle cx="41.5" cy="117.5" r="3.5" fill="#005DE9"/>
<circle cx="41.5" cy="212.5" r="3.5" fill="#005DE9"/>
<circle cx="117.5" cy="22.5" r="3.5" fill="#005DE9"/>
<circle cx="117.5" cy="117.5" r="3.5" fill="#005DE9"/>
<circle cx="117.5" cy="212.5" r="3.5" fill="#005DE9"/>
<circle cx="41.5" cy="41.5" r="3.5" fill="#005DE9"/>
<circle cx="41.5" cy="136.5" r="3.5" fill="#005DE9"/>
<circle cx="41.5" cy="231.5" r="3.5" fill="#005DE9"/>
<circle cx="117.5" cy="41.5" r="3.5" fill="#005DE9"/>
<circle cx="117.5" cy="136.5" r="3.5" fill="#005DE9"/>
<circle cx="117.5" cy="231.5" r="3.5" fill="#005DE9"/>
<circle cx="41.5" cy="60.5" r="3.5" fill="#005DE9"/>
<circle cx="41.5" cy="155.5" r="3.5" fill="#005DE9"/>
<circle cx="41.5" cy="250.5" r="3.5" fill="#005DE9"/>
<circle cx="117.5" cy="60.5" r="3.5" fill="#005DE9"/>
<circle cx="117.5" cy="155.5" r="3.5" fill="#005DE9"/>
<circle cx="117.5" cy="250.5" r="3.5" fill="#005DE9"/>
<circle cx="41.5" cy="79.5" r="3.5" fill="#005DE9"/>
<circle cx="41.5" cy="174.5" r="3.5" fill="#005DE9"/>
<circle cx="41.5" cy="269.5" r="3.5" fill="#005DE9"/>
<circle cx="117.5" cy="79.5" r="3.5" fill="#005DE9"/>
<circle cx="117.5" cy="174.5" r="3.5" fill="#005DE9"/>
<circle cx="117.5" cy="269.5" r="3.5" fill="#005DE9"/>
<circle cx="60.5" cy="3.5" r="3.5" fill="#005DE9"/>
<circle cx="60.5" cy="98.5" r="3.5" fill="#005DE9"/>
<circle cx="60.5" cy="193.5" r="3.5" fill="#005DE9"/>
<circle cx="136.5" cy="3.5" r="3.5" fill="#005DE9"/>
<circle cx="136.5" cy="98.5" r="3.5" fill="#005DE9"/>
<circle cx="136.5" cy="193.5" r="3.5" fill="#005DE9"/>
<circle cx="60.5" cy="22.5" r="3.5" fill="#005DE9"/>
<circle cx="60.5" cy="117.5" r="3.5" fill="#005DE9"/>
<circle cx="60.5" cy="212.5" r="3.5" fill="#005DE9"/>
<circle cx="136.5" cy="22.5" r="3.5" fill="#005DE9"/>
<circle cx="136.5" cy="117.5" r="3.5" fill="#005DE9"/>
<circle cx="136.5" cy="212.5" r="3.5" fill="#005DE9"/>
<circle cx="60.5" cy="41.5" r="3.5" fill="#005DE9"/>
<circle cx="60.5" cy="136.5" r="3.5" fill="#005DE9"/>
<circle cx="60.5" cy="231.5" r="3.5" fill="#005DE9"/>
<circle cx="136.5" cy="41.5" r="3.5" fill="#005DE9"/>
<circle cx="136.5" cy="136.5" r="3.5" fill="#005DE9"/>
<circle cx="136.5" cy="231.5" r="3.5" fill="#005DE9"/>
<circle cx="60.5" cy="60.5" r="3.5" fill="#005DE9"/>
<circle cx="60.5" cy="155.5" r="3.5" fill="#005DE9"/>
<circle cx="60.5" cy="250.5" r="3.5" fill="#005DE9"/>
<circle cx="136.5" cy="60.5" r="3.5" fill="#005DE9"/>
<circle cx="136.5" cy="155.5" r="3.5" fill="#005DE9"/>
<circle cx="136.5" cy="250.5" r="3.5" fill="#005DE9"/>
<circle cx="60.5" cy="79.5" r="3.5" fill="#005DE9"/>
<circle cx="60.5" cy="174.5" r="3.5" fill="#005DE9"/>
<circle cx="60.5" cy="269.5" r="3.5" fill="#005DE9"/>
<circle cx="136.5" cy="79.5" r="3.5" fill="#005DE9"/>
<circle cx="136.5" cy="174.5" r="3.5" fill="#005DE9"/>
<circle cx="136.5" cy="269.5" r="3.5" fill="#005DE9"/>
</g>
</svg>
