<svg width="70" height="56" viewBox="0 0 70 56" fill="none" xmlns="http://www.w3.org/2000/svg">
<path d="M6.54764 0.0465113C10.1545 -0.00600281 13.7644 0.0120055 17.3728 0C15.3023 12.7562 12.9962 25.4734 10.8342 38.2146C7.22281 38.2056 3.6069 38.3106 0 38.0735C2.10503 25.3848 4.34058 12.7187 6.54764 0.0465113Z" fill="black"/>
<path d="M24.4426 0.0280751C27.937 0.0100667 31.4388 0.00706544 34.9362 0.0385766C32.8327 12.7723 30.5326 25.4744 28.4111 38.2051C24.8012 38.2096 21.1853 38.3027 17.5784 38.0761C19.5544 25.7505 21.8064 13.4699 23.8844 1.16236C23.94 0.746754 23.9865 0.200617 24.4426 0.0280751Z" fill="black"/>
<path d="M41.721 0.0372682C45.3189 0.0117598 48.9183 -0.00624856 52.5162 0.0417669C50.7308 10.4214 48.9453 20.801 47.1494 31.1776C46.7818 33.5091 46.2627 35.8197 46.0271 38.1708C42.4112 38.2563 38.7923 38.2743 35.1809 38.0808C36.1531 30.9135 37.6025 23.8212 38.7458 16.6809C39.7706 11.1385 40.5763 5.55714 41.721 0.0372682Z" fill="black"/>
<path d="M59.3623 0.0107422C62.8851 0.0197464 66.4095 -0.00425783 69.9324 0.0347464C69.8889 1.56813 69.5288 3.06701 69.2992 4.57788C67.3352 15.7977 65.4628 27.034 63.4313 38.2418C59.8244 38.1833 56.213 38.3153 52.6121 38.0648C54.7591 25.5891 56.9301 13.115 59.0877 0.645403C59.1552 0.423348 59.2602 0.217797 59.3623 0.0107422Z" fill="black"/>
<path d="M33.5619 44.9306C43.1358 44.8796 52.7097 44.8316 62.2836 44.9997C61.6249 48.566 61.0548 52.1489 60.3571 55.7078C54.5687 55.8024 48.7787 55.5908 42.9903 55.6628C39.2543 55.4378 35.5109 55.6373 31.772 55.5353C32.2986 51.9884 32.9813 48.4685 33.5619 44.9306Z" fill="black"/>
</svg>
